<?xml version="1.0" standalone="no"?>
<!DOCTYPE svg PUBLIC "-//W3C//DTD SVG 20010904//EN"
 "http://www.w3.org/TR/2001/REC-SVG-20010904/DTD/svg10.dtd">
<svg version="1.0" xmlns="http://www.w3.org/2000/svg"
 width="512.000000pt" height="512.000000pt" viewBox="0 0 512.000000 512.000000"
 preserveAspectRatio="xMidYMid meet">

<g transform="translate(0.000000,512.000000) scale(0.100000,-0.100000)"
fill="#000000" stroke="none">
<path d="M998 4790 c-64 -12 -128 -59 -162 -120 l-31 -55 0 -2060 0 -2060 22
-40 c25 -47 64 -85 113 -111 33 -18 87 -19 1165 -24 l1130 -5 51 -27 c61 -32
210 -81 319 -104 110 -23 350 -24 467 -1 264 52 478 166 668 357 157 156 248
306 314 510 46 144 60 232 59 390 0 268 -74 507 -226 730 -111 162 -320 340
-496 421 l-71 33 -2 960 c-3 916 -4 963 -22 996 -26 49 -64 88 -111 113 -37
20 -57 22 -272 25 l-233 3 -2 -1008 -3 -1008 -64 -9 -64 -8 -93 93 -94 94
-160 -160 -160 -160 0 1083 0 1082 -800 0 -800 0 0 40 0 40 -202 -1 c-112 -1
-220 -5 -240 -9z m2842 -3351 l0 -801 -245 241 -246 241 -154 0 -155 0 0 320
0 320 154 0 155 0 243 240 c134 131 244 239 246 240 1 0 2 -361 2 -801z m231
782 c222 -76 411 -247 503 -454 107 -243 84 -539 -61 -765 -73 -115 -201 -230
-323 -292 -61 -31 -163 -70 -182 -70 -4 0 -8 37 -8 83 l0 82 50 18 c71 25 192
110 247 172 201 227 234 528 85 774 -21 34 -59 87 -85 116 -55 62 -176 147
-247 172 l-50 18 0 82 c0 46 4 83 8 83 5 0 33 -8 63 -19z m7 -502 c112 -74
167 -177 160 -297 -4 -80 -31 -140 -89 -201 -40 -41 -123 -101 -141 -101 -4 0
-8 144 -8 320 0 179 4 320 9 320 5 0 36 -18 69 -41z"/>
</g>
</svg>
